<svg width="1433" height="1277" viewBox="0 0 1433 1277" fill="none" xmlns="http://www.w3.org/2000/svg">
<path fill-rule="evenodd" clip-rule="evenodd" d="M1433 0H0V1069C0 1069 111.155 1069 176.246 1165.87C215.152 1223.77 238.137 1193.3 263.699 1159.42C280.903 1136.61 299.275 1112.25 324.453 1112.25C387.04 1112.25 469.155 1165.87 517.723 1255.53C566.29 1345.2 753.552 1127.57 779.087 1086.57C804.623 1045.57 904.262 1086.57 961.342 1165.87C992.02 1208.49 1048.01 1177.32 1099.85 1148.45C1144.46 1123.61 1186 1100.48 1205.68 1127.57C1218.98 1145.87 1225.63 1166.28 1231.26 1183.58C1243.67 1221.66 1251.17 1244.67 1313.83 1196.96C1404.96 1127.57 1433 1112.25 1433 1112.25V1069V0Z" fill="black"/>
</svg>
