<svg width="1374" height="940" viewBox="0 0 1374 940" fill="none" xmlns="http://www.w3.org/2000/svg">
<path fill-rule="evenodd" clip-rule="evenodd" d="M1374 8.49275C1321.44 46.3076 1252.72 78.6261 1230.92 78.6261C1213.5 78.6261 1211.65 68.7952 1209.11 55.2708C1206.2 39.752 1202.38 19.3701 1173.06 3.3977C1144.51 -12.161 1027.58 28.563 915.266 67.6824C811.794 103.721 712.233 138.398 689.274 126.453C670.284 116.574 665.965 102.384 661.413 87.4275C654.487 64.6728 647.021 40.143 586.531 26.3149C543.066 16.3787 503.445 31.9163 458.197 49.6606C399.083 72.8424 330.364 99.7907 230.922 78.6261C55.3613 41.261 10.4738 88.5902 10.4738 88.5902C10.4738 88.5902 0 96.5612 0 126.453V831.916V832.404H1.68645C17.1027 836.909 135.055 872.208 224.738 923.193C289.949 960.266 357.107 926.108 413.854 897.246C440.76 883.561 465.325 871.067 486.233 867.919C512.979 863.892 551.887 875.943 597.432 890.049C662.579 910.226 741.306 934.609 817.443 922.159C870.533 913.478 924.615 887.001 964.621 867.415C986.981 856.469 1004.94 847.675 1015.88 845.344C1046.38 838.842 1164.51 889.768 1206.08 921.481C1230.89 940.406 1261.32 917.157 1289.91 895.318C1309.23 880.563 1327.7 866.451 1343.03 866.424C1352.5 866.407 1363.23 871.656 1374 879.081V8.49275Z" fill="url(#paint0_linear_312_13)"/>
<defs>
<linearGradient id="paint0_linear_312_13" x1="719.499" y1="830.66" x2="719.659" y2="922.329" gradientUnits="userSpaceOnUse">
<stop stop-color="#F0EBCE"/>
<stop offset="1" stop-color="#FAD6A5" stop-opacity="0.66"/>
</linearGradient>
</defs>
</svg>
