<svg width="1348" height="940" viewBox="0 0 1348 940" fill="none" xmlns="http://www.w3.org/2000/svg">
<path fill-rule="evenodd" clip-rule="evenodd" d="M0 839.894C42.5126 853.505 129.138 883.626 198.738 923.193C263.949 960.266 331.107 926.108 387.854 897.246C414.76 883.561 439.325 871.067 460.233 867.919C486.979 863.892 525.887 875.943 571.432 890.049C636.579 910.226 715.306 934.609 791.443 922.159C844.533 913.478 898.615 887.001 938.621 867.415C960.981 856.469 978.943 847.675 989.878 845.344C1020.38 838.842 1138.51 889.768 1180.08 921.481C1204.89 940.406 1235.32 917.157 1263.91 895.318C1283.23 880.563 1301.7 866.451 1317.03 866.424C1326.5 866.407 1337.23 871.656 1348 879.081V8.49275C1295.44 46.3076 1226.72 78.6261 1204.92 78.6261C1187.5 78.6261 1185.65 68.7952 1183.11 55.2708C1180.2 39.752 1176.38 19.3701 1147.06 3.39771C1118.51 -12.161 1001.58 28.563 889.266 67.6824L889.265 67.6825C785.794 103.721 686.232 138.398 663.274 126.453C644.284 116.574 639.965 102.384 635.413 87.4275C628.487 64.6728 621.021 40.143 560.531 26.315C517.066 16.3787 477.445 31.9163 432.197 49.6606C373.083 72.8424 304.364 99.7907 204.922 78.6261C83.8329 52.8543 24.9083 67.3737 0 78.8646V839.894Z" fill="url(#paint0_linear_314_15)"/>
<defs>
<linearGradient id="paint0_linear_314_15" x1="693.499" y1="830.66" x2="693.659" y2="922.329" gradientUnits="userSpaceOnUse">
<stop stop-color="#F0EBCE"/>
<stop offset="1" stop-color="#FAD6A5" stop-opacity="0.66"/>
</linearGradient>
</defs>
</svg>
