<svg width="1441" height="1012" viewBox="0 0 1441 1012" fill="none" xmlns="http://www.w3.org/2000/svg">
<path d="M586.531 99.9108C686.78 122.828 641.394 175.139 689.274 200.049C737.154 224.959 1118.2 47.1015 1173.06 76.9935C1227.92 106.886 1193.51 152.222 1230.92 152.222C1265.92 152.222 1421.91 68.8917 1437.71 13.2818C1438.02 1.20449 1438.41 -3.07632 1438.9 2.26341C1439.22 5.78181 1438.79 9.46654 1437.71 13.2818C1434.83 125.154 1438.9 906 1438.9 906H0V200.049C0 170.157 10.4738 162.186 10.4738 162.186C10.4738 162.186 55.3613 114.857 230.922 152.222C406.482 189.587 486.282 76.9935 586.531 99.9108Z" fill="url(#paint0_linear_126_9)"/>
<path d="M226.578 995.67C130.545 940.852 2 904 2 904L1441 905.843V995.67C1441 1025.61 1382.98 940.852 1344.97 940.852C1306.95 940.852 1249.43 1027.45 1207.92 995.67C1166.4 963.885 1048.36 912.752 1017.85 919.202C987.342 925.651 902.069 982.281 819.284 995.67C689.883 1016.6 553.192 931.178 488.169 940.852C423.146 950.526 322.611 1050.49 226.578 995.67Z" fill="url(#paint1_linear_126_9)"/>
<defs>
<linearGradient id="paint0_linear_126_9" x1="719.517" y1="0" x2="719.517" y2="906" gradientUnits="userSpaceOnUse">
<stop stop-color="#FAD6A5"/>
<stop offset="1" stop-color="#F0EBCE"/>
</linearGradient>
<linearGradient id="paint1_linear_126_9" x1="721.5" y1="904" x2="721.5" y2="995.67" gradientUnits="userSpaceOnUse">
<stop stop-color="#F0EBCE"/>
<stop offset="1" stop-color="#FAD6A5" stop-opacity="0.66"/>
</linearGradient>
</defs>
</svg>
